Coordinates
version=1
nRows=17
nColumns=38
inDegrees=no

Units are S.I. units (second, meters, Newtons, ...)
If the header above contains a line with 'inDegrees', this indicates whether rotational values are in degrees (yes) or radians (no).

endheader
time	pelvis_tilt	pelvis_list	pelvis_rotation	pelvis_tx	pelvis_ty	pelvis_tz	hip_flexion_r	hip_adduction_r	hip_rotation_r	knee_angle_r	ankle_angle_r	subtalar_angle_r	mtp_angle_r	hip_flexion_l	hip_adduction_l	hip_rotation_l	knee_angle_l	ankle_angle_l	subtalar_angle_l	mtp_angle_l	lumbar_extension	lumbar_bending	lumbar_rotation	arm_flex_r	arm_add_r	arm_rot_r	elbow_flex_r	pro_sup_r	wrist_flex_r	wrist_dev_r	arm_flex_l	arm_add_l	arm_rot_l	elbow_flex_l	pro_sup_l	wrist_flex_l	wrist_dev_l
0.53	-2.99804	1.42923	-1.81232	0.765097	-0.151824	1.00419	-0.199702	-0.0626521	-0.0251742	0.807661	-0.239573	0	0	0.245429	-0.0353044	-0.441421	0.509791	-0.313163	0	0	-0.293242	0.0920123	0.406883	-0.274798	-0.703557	-0.129312	1.79911	0.308853	0	0	0.46761	-0.451365	0.538921	1.12472	0.660962	0	0
0.54	-2.98164	1.42269	-1.82963	0.762305	-0.14022	1.00518	-0.187089	-0.0726471	-0.0107894	0.852249	-0.288459	0	0	0.235096	-0.0283541	-0.4317	0.525824	-0.308043	0	0	-0.301778	0.0885613	0.406556	-0.280002	-0.704964	-0.134719	1.80242	0.310496	0	0	0.467927	-0.448717	0.540074	1.12359	0.662128	0	0
0.55	-2.96998	1.41638	-1.84339	0.759827	-0.12878	1.00622	-0.171709	-0.0810247	0.00465836	0.899164	-0.33163	0	0	0.222118	-0.0219591	-0.424904	0.535189	-0.303432	0	0	-0.310471	0.0851996	0.406833	-0.284328	-0.706601	-0.139219	1.80621	0.310982	0	0	0.468206	-0.447609	0.541699	1.12387	0.661195	0	0
0.56	-2.9581	1.41117	-1.8581	0.75764	-0.117542	1.00709	-0.153143	-0.0873095	0.0216513	0.949025	-0.363036	0	0	0.209065	-0.0167729	-0.424844	0.541092	-0.299391	0	0	-0.317925	0.0814367	0.406909	-0.287221	-0.708075	-0.142202	1.81011	0.311215	0	0	0.46847	-0.448432	0.543727	1.12555	0.659533	0	0
0.57	-2.94554	1.40734	-1.87361	0.755647	-0.106546	1.00767	-0.131566	-0.0910353	0.0391716	1.00108	-0.388766	0	0	0.197557	-0.012573	-0.430038	0.546802	-0.294342	0	0	-0.32387	0.0775522	0.406611	-0.289184	-0.70941	-0.144338	1.81439	0.310423	0	0	0.468968	-0.450767	0.54627	1.12863	0.656838	0	0
0.58	-2.93286	1.4041	-1.88871	0.753734	-0.095779	1.00811	-0.108613	-0.0925732	0.0554451	1.05183	-0.411421	0	0	0.187161	-0.00850137	-0.437287	0.55409	-0.286879	0	0	-0.328955	0.0738069	0.405283	-0.290046	-0.710665	-0.145503	1.81855	0.308525	0	0	0.469666	-0.454038	0.548912	1.13238	0.652776	0	0
0.59	-2.92175	1.40061	-1.90154	0.751814	-0.0852372	1.00869	-0.0847047	-0.0929721	0.069872	1.10039	-0.429352	0	0	0.176513	-0.00402103	-0.444332	0.56265	-0.277776	0	0	-0.334323	0.07038	0.402961	-0.290042	-0.711727	-0.146173	1.8223	0.306417	0	0	0.470744	-0.45773	0.551679	1.13593	0.649709	0	0
0.6	-2.91352	1.39689	-1.91028	0.749849	-0.0748193	1.00954	-0.0615902	-0.0919993	0.0820005	1.14529	-0.437595	0	0	0.16474	0.000886126	-0.450408	0.570901	-0.267458	0	0	-0.339978	0.0676513	0.399355	-0.289508	-0.712201	-0.146523	1.82547	0.303953	0	0	0.471992	-0.461346	0.554404	1.13908	0.646052	0	0
0.61	-2.91342	1.39344	-1.90938	0.747809	-0.0644592	1.01068	-0.0402178	-0.0885503	0.0912644	1.18529	-0.42859	0	0	0.151615	0.00497648	-0.454705	0.576899	-0.257714	0	0	-0.345387	0.0670829	0.394692	-0.288825	-0.712308	-0.146594	1.82779	0.301656	0	0	0.473294	-0.463886	0.556655	1.14074	0.642541	0	0
0.62	-2.9257	1.39051	-1.89445	0.745694	-0.0540922	1.01208	-0.0204807	-0.0821909	0.0967814	1.22012	-0.405196	0	0	0.137331	0.00701495	-0.45629	0.580136	-0.249274	0	0	-0.35055	0.0697191	0.389406	-0.288764	-0.712379	-0.147012	1.82966	0.299638	0	0	0.474708	-0.465055	0.558701	1.14087	0.640231	0	0
0.63	-2.94911	1.38803	-1.86652	0.743496	-0.0437292	1.01371	-0.00168381	-0.0738557	0.0975243	1.24971	-0.375331	0	0	0.122729	0.0066065	-0.455252	0.581927	-0.242487	0	0	-0.355559	0.075367	0.383408	-0.289429	-0.712279	-0.148001	1.83123	0.298165	0	0	0.475973	-0.46496	0.55996	1.14008	0.638356	0	0
0.64	-2.97917	1.38618	-1.83084	0.741329	-0.033367	1.01547	0.0173111	-0.0643687	0.0952921	1.27471	-0.348227	0	0	0.107876	0.00449097	-0.452133	0.581213	-0.237065	0	0	-0.359912	0.0829538	0.377051	-0.290459	-0.711859	-0.149005	1.83228	0.297261	0	0	0.476698	-0.464258	0.560459	1.13918	0.635619	0	0
0.65	-3.01109	1.38494	-1.79329	0.739289	-0.023048	1.01731	0.0378882	-0.0548046	0.0930325	1.29571	-0.329301	0	0	0.0932265	0.00159989	-0.448496	0.578608	-0.232762	0	0	-0.363396	0.0910603	0.37083	-0.291234	-0.711119	-0.14952	1.83243	0.296823	0	0	0.477032	-0.463755	0.56061	1.13858	0.633849	0	0
0.66	-3.04178	1.38416	-1.75733	0.737344	-0.0127724	1.01927	0.0587112	-0.0451935	0.0911977	1.31185	-0.314225	0	0	0.0779919	-0.00101148	-0.444304	0.572613	-0.229777	0	0	-0.366096	0.0988931	0.364777	-0.291439	-0.709968	-0.149344	1.83152	0.296993	0	0	0.476789	-0.463201	0.559721	1.13809	0.633497	0	0
0.67	-3.0705	1.38309	-1.72375	0.735477	-0.00257897	1.02135	0.0787979	-0.0358568	0.0891287	1.32338	-0.299266	0	0	0.061613	-0.0027024	-0.439988	0.564447	-0.227359	0	0	-0.368998	0.106078	0.358971	-0.291165	-0.708619	-0.148901	1.83007	0.29769	0	0	0.47631	-0.462756	0.558056	1.13811	0.634736	0	0
0.68	-3.0974	1.38183	-1.6925	0.733697	0.00754152	1.02346	0.0985054	-0.0268294	0.086698	1.33088	-0.283999	0	0	0.0445167	-0.0034444	-0.435923	0.554852	-0.224998	0	0	-0.372083	0.112707	0.353733	-0.290952	-0.707209	-0.148719	1.8286	0.298768	0	0	0.475899	-0.462635	0.556386	1.13885	0.636736	0	0
0.69	-3.12177	1.38091	-1.66459	0.732044	0.0176203	1.02555	0.11867	-0.0181029	0.0843991	1.33433	-0.27146	0	0	0.0272282	-0.00348049	-0.432741	0.543876	-0.223197	0	0	-0.374716	0.118703	0.349397	-0.29107	-0.705736	-0.148832	1.82716	0.300112	0	0	0.475512	-0.462492	0.554555	1.13989	0.638307	0	0
